<?xml version="1.0" encoding="utf-8"?>
<svg fill="white" version="1.1" id="Слой_1" xmlns="http://www.w3.org/2000/svg" xmlns:xlink="http://www.w3.org/1999/xlink" x="0px" y="0px"
	 viewBox="0 0 42.5 56.7" style="enable-background:new 0 0 42.5 56.7;" xml:space="preserve">
<g>
	<rect x="-0.2" y="14.7" transform="matrix(0.7071 -0.7071 0.7071 0.7071 -5.7133 19.9278)" width="42.8" height="4.3"/>
	<rect x="19.1" y="-4.5" transform="matrix(0.7071 -0.7071 0.7071 0.7071 -5.7133 19.9278)" width="4.3" height="42.8"/>
</g>
<g>
	<path d="M12.7,56.2H4.5V43.5h8.2v2H6.8v3.4h5.6v1.8H6.8v3.6h5.9V56.2z"/>
	<path d="M17.1,52.8c0.1,1.1,1.3,1.9,2.9,1.9c1.5,0,2.6-0.8,2.6-1.8c0-0.9-0.7-1.5-2.3-1.8l-1.6-0.4c-2.3-0.5-3.4-1.7-3.4-3.6
		c0-2.3,1.9-3.8,4.7-3.8c2.7,0,4.6,1.5,4.7,3.7h-2.2c-0.2-1.1-1.1-1.8-2.5-1.8c-1.5,0-2.4,0.7-2.4,1.8c0,0.9,0.6,1.4,2.2,1.7
		l1.5,0.3c2.6,0.6,3.7,1.7,3.7,3.6c0,2.5-1.9,4-5,4c-2.9,0-4.8-1.5-4.9-3.8H17.1z"/>
	<path d="M26.9,49.9c0-4.1,2.2-6.7,5.8-6.7c2.9,0,5.1,1.9,5.4,4.5h-2.2c-0.3-1.5-1.5-2.5-3.1-2.5c-2.2,0-3.5,1.8-3.5,4.6
		c0,2.9,1.3,4.6,3.5,4.6c1.6,0,2.8-0.9,3.1-2.3h2.2c-0.3,2.6-2.4,4.3-5.4,4.3C29.1,56.5,26.9,54,26.9,49.9z"/>
</g>
</svg>
