<?xml version="1.0" encoding="utf-8"?>
<!-- Generator: Adobe Illustrator 20.0.0, SVG Export Plug-In . SVG Version: 6.00 Build 0)  -->
<!DOCTYPE svg PUBLIC "-//W3C//DTD SVG 1.1//EN" "http://www.w3.org/Graphics/SVG/1.1/DTD/svg11.dtd" [
	<!ENTITY ns_extend "http://ns.adobe.com/Extensibility/1.0/">
	<!ENTITY ns_ai "http://ns.adobe.com/AdobeIllustrator/10.0/">
	<!ENTITY ns_graphs "http://ns.adobe.com/Graphs/1.0/">
	<!ENTITY ns_vars "http://ns.adobe.com/Variables/1.0/">
	<!ENTITY ns_imrep "http://ns.adobe.com/ImageReplacement/1.0/">
	<!ENTITY ns_sfw "http://ns.adobe.com/SaveForWeb/1.0/">
	<!ENTITY ns_custom "http://ns.adobe.com/GenericCustomNamespace/1.0/">
	<!ENTITY ns_adobe_xpath "http://ns.adobe.com/XPath/1.0/">
]>
<svg version="1.1" xmlns:x="&ns_extend;" xmlns:i="&ns_ai;" xmlns:graph="&ns_graphs;"
	 xmlns="http://www.w3.org/2000/svg" xmlns:xlink="http://www.w3.org/1999/xlink" x="0px" y="0px" viewBox="0 0 292 78"
	 style="enable-background:new 0 0 292 78;" xml:space="preserve">
<style type="text/css">
	.st0{fill:white}
</style>
	<g>
		<g>
			<path class="st0" d="M1.8,76.4V2.8h18.7v73.6H1.8z"/>
			<path class="st0" d="M107,76.4V2.8h18.7v73.6H107z"/>
			<path class="st0" d="M159.5,39.7V10.4h-10.2V2.9H179v7.6h-10.2v29.3H159.5z"/>
			<path class="st0" d="M210.8,39.7h-25.2V2.9h25.2v7.6H195v7.3h14.9v6.9H195v7.5h15.9V39.7z"/>
			<path class="st0" d="M281.4,39.7V24.9h-14.7v14.8h-9.4V2.9h9.4v14.4h14.7V2.9h9.3v36.8H281.4z"/>
			<path class="st0" d="M82.9,53.8C82.9,53.8,82.9,53.8,82.9,53.8c-3.6,3.5-8.5,5.7-13.9,5.7c-10.9,0-19.8-8.9-19.8-19.8
				S58.1,19.8,69,19.8c5.5,0,10.5,2.3,14.1,5.9l12-12c0,0,0,0,0,0C88.5,7,79.2,2.8,69,2.8c-20.3,0-36.8,16.5-36.8,36.8
				S48.7,76.4,69,76.4c10.1,0,19.2-4.1,25.9-10.6c0,0,0,0,0,0L82.9,53.8z"/>
			<path class="st0" d="M243,28.4C243,28.4,243,28.4,243,28.4c-1.8,1.8-4.2,2.8-6.9,2.8c-5.5,0-9.9-4.4-9.9-9.9s4.4-9.9,9.9-9.9
				c2.8,0,5.3,1.1,7.1,3l6-6c0,0,0,0,0,0c-3.3-3.4-8-5.4-13.1-5.4c-10.2,0-18.4,8.2-18.4,18.4s8.2,18.4,18.4,18.4
				c5,0,9.6-2,12.9-5.3c0,0,0,0,0,0L243,28.4z"/>
		</g>
	</g>


	</svg>
